<?xml version="1.0" standalone="no"?>
<!DOCTYPE svg PUBLIC "-//W3C//DTD SVG 1.1//EN" "http://www.w3.org/Graphics/SVG/1.1/DTD/svg11.dtd">
<svg xmlns="http://www.w3.org/2000/svg">
<metadata>Copyright (C) 2016 by original authors @ fontello.com</metadata>
<defs>
<font id="elt-glyphs" horiz-adv-x="1000" >
<font-face font-family="elt-glyphs" font-weight="400" font-stretch="normal" units-per-em="1000" ascent="850" descent="-150" />
<missing-glyph horiz-adv-x="1000" />
<glyph glyph-name="camera" unicode="&#xe800;" d="M896-4h-792c-46 0-83 37-83 83v459c0 46 37 83 83 83h21l0 0c0 23 19 42 42 42h41c23 0 42-19 42-42h42c0 0 23 2 41 21l42 41c0 0 16 21 42 21h166c28 0 42-21 42-21l42-41c18-19 41-21 41-21h188c46 0 83-37 83-83v-459c0-46-37-83-83-83z m42 542c0 23-19 41-42 41l-192 0c-7 1-40 6-67 33l-44 45-2 3c0 0-4 3-8 3h-166c-3 0-8-4-9-5l-2-2-43-44c-27-27-60-32-67-32l-86-1c-1 0-1 0-2 0h-41c-1 0-1 0-1 0l-62 0c-23 0-41-18-41-41v-459c0-23 18-41 41-41h792c23 0 42 18 42 41v459z m-438-459c-127 0-229 103-229 229s102 230 229 230 229-103 229-230-102-229-229-229z m0 417c-104 0-187-84-187-188s83-187 187-187 188 84 188 187-84 188-188 188z m0-292c-57 0-104 47-104 104s47 105 104 105 104-47 104-105-46-104-104-104z m0 167c-34 0-62-28-62-63 0-34 28-62 62-62 35 0 63 28 63 62 0 35-28 63-63 63z m-292 83h-83c-11 0-21 10-21 21v42c0 11 10 21 21 21h83c12 0 21-10 21-21v-42c0-11-9-21-21-21z" horiz-adv-x="1000" />

<glyph glyph-name="person" unicode="&#xe801;" d="M500-88c-242 0-437 196-437 438s195 438 437 438 438-196 438-438-196-438-438-438z m242 126c-3 4-7 10-10 15-6 8-12 16-17 25 0 0-29 38-132 43-35 0-61 27-61 64l-1 19c0 3 0-3 0 0v21l21 21c15 7 34 19 50 30l2 2c13 8 29 24 31 30l1 8c8 40 20 113 20 138 0 98-48 146-146 146-99 0-146-46-146-146 0-25 13-98 20-138l1-7c1-6 17-22 30-30l2-2c17-11 36-24 51-31l21-21v-21c1-3 0 3 0 0l0-19c0-37-26-64-61-64 0 0 0 0 0 0-103-4-133-43-133-43-5-9-11-17-17-25-3-5-7-11-10-15 67-53 151-84 242-84s175 31 242 84z m-242 708c-219 0-396-177-396-396 0-112 47-213 122-285 8 12 17 23 24 35 0 0 35 57 167 63 13 0 20 8 20 22h0c0 11 0 19 0 19 0 3-1 5-1 8-15 7-32 17-53 31 0 0-50 31-50 65 0 0-20 107-20 146 0 97 41 188 187 188 144 0 188-91 188-188 0-38-21-146-21-146 0-33-50-65-50-65-20-15-38-25-53-32 0-2-1-4-1-7 0 0 0-8 0-19h0c0-14 7-22 20-22 134-6 167-63 167-63 8-12 16-23 24-35 75 72 122 173 122 285 0 219-177 396-396 396z" horiz-adv-x="1000" />

<glyph glyph-name="id" unicode="&#xe802;" d="M896-25h-792c-46 0-83 37-83 83v438c0 46 37 83 83 83h313v84c0 46 37 83 83 83s83-37 83-83v-84h313c46 0 83-37 83-83v-438c0-46-37-83-83-83z m-541 157c0-1 0-1 0-1-1 0-1 17-1 17s24 12 42 28c11 9 16 29 16 29 3 17 5 60 5 77 0 43-22 89-84 89v0 0c-62 0-83-46-83-89 0-17 2-60 5-77 0 0 5-20 15-29 18-16 43-28 43-28s-1-17-1-17c0 0 0 1 0 1 0 0 1-24 1-31 0-29-29-42-46-42-1 0-1 0-1 0-54-3-66-21-66-21-4-5-8-10-12-21h291c-4 11-9 16-12 21 0 0-13 18-67 21 0 0 0 0 0 0-18 0-46 13-46 42 0 7 1 31 1 31z m187 531c0 23-19 41-42 41s-42-18-42-41v-125c0-23 19-42 42-42s42 19 42 42v125z m396-167c0 23-19 42-42 42h-313c0-46-37-84-83-84s-83 38-83 84h-313c-23 0-41-19-41-42v-438c0-23 18-41 41-41h38c4 12 13 32 24 46 0 1 17 37 104 38 0 0 0 21 0 21-6 4-15 11-21 17-6 3-25 22-31 54-2 11-10 64-10 87 0 66 26 133 124 133 1 0 2 0 3 0 97 0 124-67 124-133 0-23-9-76-11-87-6-32-24-51-30-54-6-6-15-13-22-17 1 0 1-21 1-21 86-1 103-37 104-38 10-14 19-34 24-46h371c23 0 42 18 42 41v438z m-105-188h-250c-11 0-20 10-20 21s9 21 20 21h250c12 0 21-9 21-21s-9-21-21-21z m-250-83h42c12 0 21-9 21-21s-9-21-21-21h-42c-11 0-20 10-20 21s9 21 20 21z m0-83h125c12 0 21-10 21-21s-9-21-21-21h-125c-11 0-20 9-20 21s9 21 20 21z m84 62c0 12 9 21 21 21h83c11 0 21-9 21-21s-10-21-21-21h-83c-12 0-21 10-21 21z m-188 459h42v-42h-42v42z" horiz-adv-x="1000" />

<glyph glyph-name="office" unicode="&#xe803;" d="M125-129v562c0 46 37 84 83 84l0 0v83c0 23 19 42 42 42h42v166c0 12 9 21 21 21s20-9 20-21v-166h42c23 0 42-19 42-42v-83l0 0 0 0c46 0 83-38 83-84v-166h146v125h83v62h125v-62h21v-521h-750z m250 708c0 12-9 21-21 21h-83c-12 0-21-9-21-21v-62h125v62z m83-146c0 23-18 42-41 42h-209c-23 0-41-19-41-42v-521h291v521z m188-208h-146v-313h146v313z m187 125h-145v-438h145v438z m-83-62h21c11 0 21-10 21-21v-21c0-12-10-21-21-21h-21c-11 0-21 9-21 21v21c0 11 10 21 21 21z m0-125h21c11 0 21-10 21-21v-21c0-12-10-21-21-21h-21c-11 0-21 9-21 21v21c0 11 10 21 21 21z m0-125h21c11 0 21-10 21-21v-21c0-12-10-21-21-21h-21c-11 0-21 9-21 21v21c0 11 10 21 21 21z m-187 125h20c12 0 21-10 21-21v-21c0-12-9-21-21-21h-20c-12 0-21 9-21 21v21c0 11 9 21 21 21z m0-125h20c12 0 21-10 21-21v-21c0-12-9-21-21-21h-20c-12 0-21 9-21 21v21c0 11 9 21 21 21z m-188-63h-21c-11 0-21 9-21 21v21c0 11 10 21 21 21h21c12 0 21-10 21-21v-21c0-12-9-21-21-21z m0 125h-21c-11 0-21 9-21 21v21c0 11 10 21 21 21h21c12 0 21-10 21-21v-21c0-12-9-21-21-21z m0 125h-21c-11 0-21 9-21 21v21c0 11 10 21 21 21h21c12 0 21-10 21-21v-21c0-12-9-21-21-21z m0 125h-21c-11 0-21 9-21 21v21c0 11 10 21 21 21h21c12 0 21-10 21-21v-21c0-12-9-21-21-21z m-104-375h-21c-11 0-21 9-21 21v21c0 11 10 21 21 21h21c11 0 21-10 21-21v-21c0-12-10-21-21-21z m0 125h-21c-11 0-21 9-21 21v21c0 11 10 21 21 21h21c11 0 21-10 21-21v-21c0-12-10-21-21-21z m0 125h-21c-11 0-21 9-21 21v21c0 11 10 21 21 21h21c11 0 21-10 21-21v-21c0-12-10-21-21-21z m0 125h-21c-11 0-21 9-21 21v21c0 11 10 21 21 21h21c11 0 21-10 21-21v-21c0-12-10-21-21-21z" horiz-adv-x="1000" />

<glyph glyph-name="calendar" unicode="&#xe804;" d="M896-46h-792c-46 0-83 37-83 84v625c0 46 37 83 83 83h792c46 0 83-37 83-83v-625c0-47-37-84-83-84z m42 709c0 23-19 41-42 41h-792c-23 0-41-18-41-41v-125h875v125z m0-167h-875v-458c0-23 18-42 41-42h792c23 0 42 19 42 42v458z m-84-292h-41c-12 0-21 10-21 21v42c0 11 9 21 21 21h41c12 0 21-10 21-21v-42c0-11-9-21-21-21z m0 146h-41c-12 0-21 9-21 21v42c0 11 9 20 21 20h41c12 0 21-9 21-20v-42c0-12-9-21-21-21z m-166-146h-42c-12 0-21 10-21 21v42c0 11 9 21 21 21h42c11 0 20-10 20-21v-42c0-11-9-21-20-21z m0 146h-42c-12 0-21 9-21 21v42c0 11 9 20 21 20h42c11 0 20-9 20-20v-42c0-12-9-21-20-21z m-167-146h-42c-11 0-21 10-21 21v42c0 11 10 21 21 21h42c11 0 21-10 21-21v-42c0-11-10-21-21-21z m0 146h-42c-11 0-21 9-21 21v42c0 11 10 20 21 20h42c11 0 21-9 21-20v-42c0-12-10-21-21-21z m-167-292h-41c-12 0-21 10-21 21v42c0 11 9 21 21 21h41c12 0 21-10 21-21v-42c0-11-9-21-21-21z m0 146h-41c-12 0-21 10-21 21v42c0 11 9 21 21 21h41c12 0 21-10 21-21v-42c0-11-9-21-21-21z m0 146h-41c-12 0-21 9-21 21v42c0 11 9 20 21 20h41c12 0 21-9 21-20v-42c0-12-9-21-21-21z m-166-292h-42c-12 0-21 10-21 21v42c0 11 9 21 21 21h42c11 0 20-10 20-21v-42c0-11-9-21-20-21z m0 146h-42c-12 0-21 10-21 21v42c0 11 9 21 21 21h42c11 0 20-10 20-21v-42c0-11-9-21-20-21z m291-62h42c11 0 21-10 21-21v-42c0-11-10-21-21-21h-42c-11 0-21 10-21 21v42c0 11 10 21 21 21z" horiz-adv-x="1000" />

<glyph glyph-name="home" unicode="&#xe805;" d="M932 356c-8-8-21-8-29 0l-186 186c-2 1-3 2-4 4l-80 80c-1 1-2 2-3 3l-130 130-403-403c-8-8-21-8-28 0-8 8-8 21 0 29l414 415c1 1 1 2 2 3 4 4 10 6 15 5 5 1 11-1 15-5 1-1 1-2 2-3l108-109v55c0 0 0 0 0 0 0 11 9 21 21 21h83c6 0 11-3 15-6 4-4 6-9 6-15v-180l182-181c8-8 8-21 0-29z m-224 369h-41v-75l41-42v117z m-500-333c12 0 21-10 21-21v-396c0-23 19-42 42-42h125l0 0v271c0 12 9 21 21 21h166c12 0 21-9 21-21v-271l0 0h125c23 0 42 19 42 42v396c0 11 9 21 21 21s21-10 21-21v-396c0-46-38-83-84-83h-458c-46 0-83 37-83 83v396c0 11 9 21 20 21z m355-459v250h-125v-250l0 0h125l0 0z" horiz-adv-x="1000" />

<glyph glyph-name="badge" unicode="&#xe806;" d="M771 423v-83l-73-42-42-73h-10c0 0 0 0 0 0v-313c0 0 0 0 0 0 0-5-2-10-6-14s-10-6-15-6c0 0 0 0 0 0-7 0-13 3-16 8l-109 109-109-109c-4-5-10-8-16-8 0 0 0 0 0 0-6 0-11 2-15 6-4 4-6 9-6 14 0 0 0 0 0 0v313c0 0 0 0 0 0h-11l-42 73-72 42v83l-42 73 42 72v84l72 42 42 73h84l73 42 72-42h84l42-73 73-42v-84l42-72-42-73z m-375-198v-263l87 87c1 1 1 3 2 3 4 5 9 6 15 6 5 0 11-1 15-6 1 0 1-2 2-3l87-87v263c0 0 0 0 0 0h-32l-72-42-73 42h-31c0 0 0 0 0 0z m333 332v71l-61 36-36 61h-71l-61 35-61-35h-71l-36-61-61-36v-71l-36-61 36-62v-70l61-36 36-61h70l62-36 61 36h71l35 61 62 36v70l35 62-35 61z" horiz-adv-x="1000" />

<glyph glyph-name="historic" unicode="&#xe807;" d="M958-76h-916c-12 0-21 9-21 21s9 21 21 21h916c12 0 21-9 21-21s-9-21-21-21z m-625 209c12 0 21-10 21-21s-9-21-21-21h-166c-12 0-21 9-21 21s9 21 21 21h21v270h-21c-12 0-21 10-21 21 0 12 9 21 21 21h166c12 0 21-9 21-21 0-11-9-21-21-21h-20v-270h20z m-62 270h-42v-270h42v270z m312-270c12 0 21-10 21-21s-9-21-21-21h-166c-12 0-21 9-21 21s9 21 21 21h21v270h-21c-12 0-21 10-21 21 0 12 9 21 21 21h166c12 0 21-9 21-21 0-11-9-21-21-21h-20v-270h20z m-62 270h-42v-270h42v270z m396-375c0-11-10-20-21-20h-792c-11 0-21 9-21 20s10 21 21 21h792c11 0 21-9 21-21z m-84 105c12 0 21-10 21-21s-9-21-21-21h-166c-12 0-21 9-21 21s9 21 21 21h21v270h-21c-12 0-21 10-21 21 0 12 9 21 21 21h166c12 0 21-9 21-21 0-11-9-21-21-21h-20v-270h20z m-62 270h-42v-270h42v270z m-708 125l437 239 438-239v-41h-875v41z m782 0l-345 179-346-179h691z" horiz-adv-x="1000" />

<glyph glyph-name="award" unicode="&#xe808;" d="M750 475l0 0c0-116-80-214-187-242v-216h125c11 0 20-10 20-21 0-12-9-21-20-21h-375c-12 0-21 9-21 21 0 11 9 21 21 21h125v216c-108 28-188 126-188 242l0 0c-80 0-146 65-146 146v42c0 11 10 20 21 20h125v21c0 35-28 63-62 63l0 0c-12 0-21 9-21 21s9 20 21 20l0 0 0 0h625l0 0 0 0c11 0 20-9 20-20s-9-21-20-21l0 0c-35 0-63-28-63-63l0 0v-21h125c12 0 21-9 21-20v-42c0-81-65-146-146-146z m-271-458h42v209c-7 0-14-1-21-1s-14 1-21 1v-209z m-333 625v-21c0-58 47-104 104-104v125h-104z m124 125c14-18 22-39 22-63l0 0v-229c0-115 93-208 208-208 115 0 208 93 208 208v229l0 0 0 0c0 24 9 45 22 63h-460z m584-125h-104v-125c58 0 104 46 104 104v21z m-604-709h500c12 0 21-9 21-21 0-11-9-20-21-20h-500c-11 0-21 9-21 20 0 12 10 21 21 21z" horiz-adv-x="1000" />

<glyph glyph-name="shop" unicode="&#xe809;" d="M896-46h-729c-46 0-84 37-84 84v398c-36 10-62 42-62 81v62c0 0 0 0 0 0v0c0 3 1 6 2 9 0 0 0 1 0 1 2 2 4 5 6 6l142 143c4 5 10 8 17 8h0c0 0 0 0 0 0h125c0 0 0 0 0 0h125c0 0 0 0 0 0h125c0 0 0 0 0 0h125c0 0 0 0 0 0h208c46 0 83-37 83-83l0 0v-625c0-47-37-84-83-84z m-583 42l0 0v187h-84v-187l0 0h84z m-250 521c0-23 18-42 41-42s42 19 42 42v41h-83v-41z m132 187l-104-104h68l104 104h-68z m-7-187c0-23 18-42 41-42s42 19 42 42v41h-83v-41z m132 187l-104-104h68l104 104h-68z m-7-187c0-23 18-42 41-42s42 19 42 42v41h-83v-41z m132 187l-104-104h68l104 104h-68z m-7-187c0-23 18-42 41-42s42 19 42 42v41h-83v-41z m132 187l-104-104h68l104 104h-68z m97-29l-104-104v-54c0-46-38-84-84-84-25 0-47 12-62 29-16-17-38-29-63-29s-47 12-62 29c-16-17-38-29-63-29-25 0-47 12-62 29-11-12-26-21-42-26v-398c0-23 19-42 42-42h21l0 0v208c0 12 9 21 20 21h125c12 0 21-9 21-21v-208l0 0h271c23 0 42 19 42 42v637z m271-12c0 23-19 41-42 41h-188v-666c0-16-4-30-11-42h199c23 0 42 19 42 42v625z m-355-480l0 0h-166l0 0c-12 0-21 10-21 21v146c0 12 9 21 21 21h166c12 0 21-9 21-21v-146c0-11-9-21-21-21z m-20 146h-125v-104h125v104z" horiz-adv-x="1000" />

<glyph glyph-name="compass" unicode="&#xe80a;" d="M500-88c-242 0-437 196-437 438s195 438 437 438 438-196 438-438-196-438-438-438z m0 834c-219 0-396-177-396-396s177-396 396-396 396 177 396 396-177 396-396 396z m333-417h-20c-12 0-21 10-21 21s9 21 21 21h20c12 0 21-9 21-21s-9-21-21-21z m-125-171c-1-4-2-7-5-10-7-7-16-8-24-4l1-1 0 0 0 0 0 0c-3 1-6 2-9 4-108 45-171 80-206 103-27 17-37 27-37 28-1 1-52 50-135 252l0 0c0 0 0 0 0 0l1-1c0 0 0 1 0 1-2 5-2 9-1 14 1 3 2 6 5 8 6 7 15 8 23 4 0 0 0 0 0 0l0 1-1 0c0 0 0 0 0 0l0 0c202-83 251-134 252-135 1-1 52-50 135-252l0 0c0 0 0 0 0 0l0 1-1 0c1-1 1-2 1-3 1-3 2-6 1-10z m-165 235c-1 1-42 40-192 106 66-150 106-191 106-192 1 0 42-40 192-106-66 150-105 191-106 192z m-43-22c12 0 21-9 21-21s-9-21-21-21-21 10-21 21 10 21 21 21z m0 271c-11 0-21 9-21 21v20c0 12 10 21 21 21s21-9 21-21v-20c0-12-9-21-21-21z m0-584c12 0 21-9 21-20v-21c0-12-9-21-21-21s-21 9-21 21v21c0 11 10 20 21 20z m-312 271h-21c-12 0-21 10-21 21s9 21 21 21h21c11 0 20-9 20-21s-9-21-20-21z" horiz-adv-x="1000" />

<glyph glyph-name="question" unicode="&#xe80b;" d="M42 371c0 265 214 479 479 479 265 0 479-214 479-479 0-265-214-479-479-479-265 0-479 214-479 479z m444-162l61 0 0-63-61 0 0 63z m-65 351c24 27 59 40 102 40 40 0 72-11 96-34 24-23 36-52 36-88 0-22-4-39-13-53-9-13-27-33-54-59-19-19-32-35-38-48-5-13-8-32-8-58l-55 0c0 29 4 53 11 70 7 18 22 39 45 62l25 24c7 7 13 14 17 21 9 14 13 27 13 42 0 20-6 37-18 51-12 15-32 22-59 22-34 0-58-12-71-37-7-14-11-35-12-61l-55 0c0 44 13 79 38 106 0 0-25-27 0 0z" horiz-adv-x="1000" />

<glyph glyph-name="speech" unicode="&#xe80c;" d="M586 131l-126 85h-106c-34 0-62 28-62 64v222c0 36 28 64 62 64h293c34 0 62-28 62-64v-222c0-36-28-64-62-64h-61v-85z m-232 398c-14 0-25-12-25-27v-222c0-15 11-27 25-27h117l79-52v52h97c14 0 26 12 26 27v222c0 15-12 27-26 27h-293z" horiz-adv-x="1000" />

<glyph glyph-name="key" unicode="&#xe80d;" d="M906 788c5 0 14-2 22-10 8-8 10-17 10-22s-2-14-10-22l-35-35-18-18v-26-117h-62-63v-63-62h-62-63v-63-62h-6-77l16-75c3-17 5-34 5-50 0-138-113-251-250-251s-250 113-250 251 112 250 250 250c38 0 77-10 114-30l41-21 32 32 384 384c8 8 17 10 22 10m-593-750c68 0 125 56 125 125s-57 125-125 125-125-57-125-125 56-125 125-125m593 812c-24 0-48-9-66-27l-384-384c-43 22-91 36-143 36-173 0-313-140-313-312s140-313 313-313 312 140 312 313c0 21-2 42-6 62h69v125h125v125h125v180l35 35c36 37 36 96 0 133-19 18-43 27-67 27l0 0z m-593-750c-35 0-63 28-63 63s28 62 63 62 62-28 62-62-28-63-62-63l0 0z" horiz-adv-x="1000" />

<glyph glyph-name="yoga" unicode="&#xe80e;" d="M500 838c68 0 127-53 127-120 0-75-59-128-127-128s-120 53-120 128c0 67 53 120 120 120l0 0z m-112-278h112l0 0 0 0h120c30 0 45 0 75-45 30-37 67-127 82-195 15-67 23-89-37-127s-158-60-240-60l0 0c-82 0-180 23-240 60s-45 60-30 127c15 68 53 158 83 195 22 45 37 45 75 45l0 0z m120-322h97c0-30-45-52-97-52-60 0-105 22-105 52h105z m-8-156l0 0m0 0c-97-7-150 51-195 59-52 7-60 0-105-30-45-30-135-105-157-158-30-52-8-97 82-90 90 15 203 38 285 60 38 8 38 15 90 15 53 0 53-7 90-15 82-22 195-45 285-60 90-7 112 38 82 90-22 53-112 128-157 158s-53 37-105 30c-45-8-98-66-195-59" horiz-adv-x="1000" />

<glyph glyph-name="airport" unicode="&#xe80f;" d="M977 239c-11-9-25-14-39-14-5 0-9 0-13 1l-300 60v-161c0-14 10-26 23-29l0-1-1 0c2-1 4-1 6-2l125-62c21-11 35-32 35-56v-63c0-34-28-62-63-62l-250 62-250-62c-34 0-62 28-62 62v63c0 24 13 45 34 56l125 62c2 1 4 1 6 2l-1 0 0 1c13 3 23 15 23 29v161l-300-60c-4-1-8-1-12-1-15 0-29 5-40 14-15 12-23 30-23 49v62c0 22 12 42 30 54l322 192c13 3 23 15 23 29v100c0 69 56 125 125 125s125-56 125-125v-100c0-14 10-26 23-29l322-192c19-12 30-32 30-54v-62c0-19-8-37-23-49z m-39 111c0 0-351 200-357 206s-11 13-14 20-4 16-4 24v125c0 35-28 63-63 63s-62-28-62-63v-125c0-8-2-16-5-24s-8-14-14-20-356-206-356-206v-62l312 62 0 0v0c9 0 17-2 24-5 7-3 14-7 20-13s11-13 14-21 5-15 5-23v-188c0-8-2-16-5-24s-8-14-14-20-169-81-169-81v-63l250 63 250-63v63c0 0-163 75-169 81s-11 13-14 20-4 16-4 24v188c0 8 1 16 4 23s8 15 14 21 13 10 20 13c8 3 16 5 24 5h0l313-62v62z" horiz-adv-x="1000" />

<glyph glyph-name="restaurants" unicode="&#xe810;" d="M344 850c-24 0-46-9-63-24-16 15-38 24-62 24s-46-9-63-24c-16 15-38 24-62 24-52 0-94-42-94-94v-250c0-75 40-115 72-147 30-30 53-53 53-103v-312c0-52 42-94 94-94s94 42 94 94v312c0 50 23 73 53 103 32 32 72 72 72 147v250c0 52-43 94-94 94z m31-344c0-49-23-73-53-103-32-32-72-71-72-147v-312c0-18-14-32-31-32s-31 14-31 32v312c0 76-40 115-72 147-30 30-53 54-53 103v250c0 18 14 32 31 32s31-14 31-32v-187c0-17 14-31 31-31s32 14 32 31v187c0 18 14 32 31 32s31-14 31-32v-187c0-17 14-31 31-31s32 14 32 31v187c0 18 14 32 31 32s31-14 31-32v-250z m553-165c-29 30-53 53-53 103v312c0 52-42 94-94 94s-93-42-93-94v-312c0-50-24-73-54-103-32-32-71-72-71-147 0-14 2-344 218-344s219 330 219 344c0 75-40 115-72 147z m-147-429c-154 0-156 279-156 282 0 49 24 73 53 103 32 32 72 71 72 147v312c0 18 14 32 31 32s32-14 32-32v-312c0-76 39-115 71-147 30-30 54-54 54-103 0-3-2-282-157-282z" horiz-adv-x="1000" />

<glyph glyph-name="facebook" unicode="&#xe811;" d="M696 779q67 0 114-48t47-113v-536q0-66-47-113t-114-48h-104v332h111l16 130h-127v83q0 31 13 46t51 16l68 1v115q-35 5-100 5-75 0-121-45t-45-126v-95h-112v-130h112v-332h-297q-67 0-114 48t-47 113v536q0 66 47 113t114 48h535z" horiz-adv-x="857.1" />

<glyph glyph-name="search" unicode="&#xe812;" d="M772 78q30-34 6-62l-46-46q-36-32-68 0l-190 190q-74-42-156-42-128 0-223 95t-95 223 90 219 218 91 224-95 96-223q0-88-46-162z m-678 358q0-88 68-156t156-68 151 63 63 153q0 88-68 155t-156 67-151-63-63-151z" horiz-adv-x="789" />

<glyph glyph-name="heart" unicode="&#xe813;" d="M508-66q-17 0-29 9-26 17-85 58t-154 112-134 110q-106 106-106 264 0 116 82 198t198 82q143 0 228-118 38 55 99 86t129 32q117 0 198-82t81-198q0-158-106-264-38-38-133-110t-155-113-83-57q-13-9-30-9z m-228 729q-72 0-124-51t-52-125q0-114 76-190 79-79 328-248 248 169 327 248 76 76 76 190 0 73-51 125t-124 51q-73 0-125-51t-51-125q0-22-16-37t-36-15-37 15-15 37q0 73-52 125t-124 51z" horiz-adv-x="1015" />

<glyph glyph-name="pubs" unicode="&#xe814;" d="M260 115q0-10-7-17t-18-8-18 8-8 17l0 313q0 10 8 18t18 8 18-8 7-18l0-313z m105 0q0-10-8-17t-18-8-18 8-8 17l0 313q0 10 8 18t18 8 18-8 8-18l0-313z m104 0q0-10-8-17t-18-8-19 8-8 17l0 313q0 10 8 18t19 8 18-8 8-18l0-313z m234 548q75 0 128-54t54-129l0-260q0-75-54-128t-128-54l-25 0q0-65-46-111t-111-46l-365 0q-65 0-110 46t-46 111l0 677q0 43 30 73t74 31l469 0q43 0 74-31t31-73l0-52 25 0z m-599 52l0-78q0-32 23-55t56-23q45 0 67 40l9 16 19-3q17-3 34 6t23 27l6 18 232 0 0 52-469 0z m469-677l0 572-197 0q-31-51-90-51-40-52-103-52-45 0-79 26l0-495q0-21 15-37t37-16l365 0q22 0 37 16t15 37z m208 182l0 260q0 33-23 56t-55 23l-78 0 0-417 78 0q32 0 55 23t23 55z" horiz-adv-x="885" />

<glyph glyph-name="metro" unicode="&#xe815;" d="M607 850q103 0 177-52t73-127v-500q0-72-70-123t-170-55l118-112q9-9 5-20t-17-11h-589q-12 0-17 11t5 20l119 112q-101 3-171 55t-70 123v500q0 75 73 127t177 52h357z m-446-732q37 0 63 26t26 63-26 63-63 26-63-26-27-63 27-63 63-26z m232 303v286h-304v-286h304z m303-303q37 0 63 26t27 63-27 63-63 26-63-26-26-63 26-63 63-26z m90 303v286h-322v-286h322z" horiz-adv-x="857.1" />

<glyph glyph-name="pet" unicode="&#xe816;" d="M5 537q-14 29 12 42 13 6 26 2t18-13q20-31 58-51t69-20l315 0q-31-156-27-296-18 0-50 5t-48 6q-27 4-20-23l45-178q-2-49-39-55-15 0-31 11t-20 23l-56 222q-2 12-13 12t-15-12l-52-220q-10-36-43-36-22 0-35 18t-10 37l64 262 4 160q-45 12-89 39t-63 65z m394 164q-11 21 8 33 22 12 33-6l112-176q11-23-6-35-24-10-35 8z m90-690l39 160q2 8-2 16 2 185 26 293 78-102 211-129-4-12-13-34t-13-32q-4-14 4-41 29-114 61-231 4-29-16-41t-43-6-29 24l-45 172q-10 17-27 18t-24-18l-41-170q-10-26-33-28t-41 14-14 33z m96 508l135 139 23 86 53-63q6-2 26-6t31-8 24-12 18-21 12-45 14-41q12-11 25-21t33-33q18-36-48-71-28 2-52 6t-42 6q-24 4-41 8-4-10-7-22t-9-23q-58 12-113 44t-82 77z" horiz-adv-x="983" />

<glyph glyph-name="adventure" unicode="&#xe817;" d="M703 370c-34 0-114-88-156-137-82 150-179 285-213 285-70 0-334-432-334-625v-43h1000v48c0 88-241 472-297 472z m-75-480h-588v3c0 183 240 547 293 583 53-41 295-414 295-575v-11z m332 0h-292v11c0 69-44 183-101 294 65 78 118 126 134 134 43-33 259-350 259-431v-8z m-190 640c50 0 90 40 90 90 0 50-40 90-90 90s-90-40-90-90c0-50 40-90 90-90z m0 140c27 0 50-22 50-50 0-28-23-50-50-50-28 0-50 22-50 50 0 28 22 50 50 50z m-217-69c34-12 67-29 72-35 4-17-10-61-22-86-3-8-1-17 5-23 6-6 15-7 23-3 18 10 54 26 72 26 2 0 3-1 3-1 9-5 30-41 46-77 3-7 10-12 18-12 0 0 0 0 1 0 8 0 15 6 18 14 12 34 30 70 38 74 0 0 1 0 4 0 19 0 58-15 79-25 7-3 16-2 22 4 6 6 8 15 5 23-16 34-28 75-26 82 6 8 41 26 76 39 8 3 13 11 13 19 0 8-5 16-13 19-33 13-68 31-72 37-5 15 10 59 21 84 4 8 2 17-4 23-6 6-15 7-23 3-19-10-54-26-72-26-2 0-3 1-3 1-9 5-30 41-46 77-3 7-11 12-19 12-8 0-15-6-18-14-12-34-30-70-39-74 0 0-1 0-3 0-19 0-59 15-79 25-7 3-16 2-22-4-6-6-8-15-5-23 15-33 26-71 25-83-8-8-42-25-75-38-5-2-9-5-11-10-1-2-2-6-2-9 0-9 5-16 13-19z m113 62c5 17-1 45-9 70 17-6 37-11 52-11 7 0 13 1 19 3 17 7 32 32 44 55 12-22 28-46 43-55 16-8 43-3 67 6-7-23-11-49-5-68 4-13 22-28 53-43-32-15-51-30-56-43-5-17 1-45 9-70-18 6-37 11-52 11-7 0-14-1-19-3-17-7-32-32-44-55-12 22-28 47-44 55-6 3-13 5-21 5-14 0-31-5-46-11 6 23 11 48 6 67-4 16-26 32-52 44 48 24 53 38 55 43z" horiz-adv-x="1000" />

<glyph glyph-name="chart-pie" unicode="&#xe818;" d="M808 399l-332 0 0 335c184 0 332-147 332-331l0-4z m-437-105l333 0 0 4c0-184-149-332-333-332s-331 148-331 332 148 332 331 332l0-336z" horiz-adv-x="807" />

<glyph glyph-name="swimming" unicode="&#xe819;" d="M556 675c-8 0-21-5-28-8l-200-97c-26-12-36-51-19-75l61-82-223-174 103-33 134 44c5 2 11 3 16 3s10-1 16-3l134-44 70 24-192 278 152 76c30 15 28 41 25 57-3 14-21 34-49 34z m94-150c-55 0-100-45-100-100 0-55 45-100 100-100 55 0 100 45 100 100 0 55-45 100-100 100z m-550-350c-5 0-12-2-16-3l-84-28 0-103 100 34 134-47c6-2 11-3 16-3 5 0 11 2 16 3l134 47 134-47c6-2 11-3 16-3 5 0 11 2 16 3l134 47 150-50 0 103-134 44c-5 2-11 3-16 3s-10-1-16-3l-134-44-134 44c-6 2-11 3-16 3s-11-2-16-3l-134-44-134 44c-7 2-11 3-16 3z" horiz-adv-x="850" />

<glyph glyph-name="beach" unicode="&#xe81a;" d="M103 49c4 10 14 14 24 10 20-8 43-8 63 0 0 0 0 1 0 1 28 11 61 11 90 0 0 0 0 0 0 0 20-9 42-9 62-1 0 0 0 1 0 1 29 11 62 11 90 0 10-4 14-15 11-24-3-7-10-12-17-12-3 0-5 1-7 2-20 8-43 8-63 0 0 0 0 0 0 0-14-6-30-9-45-9-16 0-31 3-45 9 0 0 0 0 0 0-20 8-43 8-63 0 0 0 0 0 0 0-14-6-29-9-45-9-15 0-31 3-45 9-9 3-14 14-10 23z m329-55c-28 12-61 12-89 0 0 0-1 0-1 0-20-8-42-8-62 0 0 0 0 0-1 0-28 12-61 12-89 0 0 0 0 0 0 0-20-8-43-8-63 0-10 4-20-1-24-10-4-9 1-20 10-24 14-6 30-8 45-8 16 0 31 2 45 8 0 0 0 0 0 0 20 8 43 8 63 0 0 0 0 0 0 0 14-6 30-8 45-8 16 0 31 2 45 8 0 0 0 0 0 0 20 8 43 8 63 0 2-1 4-1 7-1 7 0 14 4 17 11 3 10-1 20-11 24z m0 196c-28 12-61 12-90 0 0 0 0 0 0 0-20-8-42-8-62 0 0 0 0 0 0 0-29 12-62 12-90 0 0 0 0 0 0 0-20-8-43-8-63 0-10 4-20-1-24-10s1-20 10-24c14-6 30-9 45-9 16 0 31 3 45 9 0 0 0 0 0 0 20 8 43 8 63 0 0 0 0 0 0 0 14-6 30-9 45-9 16 0 31 3 45 9 0 0 0 0 0 0 20 8 43 8 63 0 2-1 4-1 7-1 7 0 14 4 17 11 3 10-1 20-11 24z m0-65c-28 11-61 11-90 0-20-8-42-8-62 0 0 0 0 0 0 0-29 11-62 11-90 0-21-8-43-8-63 0-10 4-20-1-24-10-4-10 1-20 10-24 15-6 30-9 45-9 16 0 31 3 45 9 20 8 43 8 63 0 0 0 0 0 0 0 14-6 30-9 45-9 16 0 31 3 45 9 20 8 43 8 63 0 2-1 4-1 7-1 7 0 14 4 17 11 3 9-1 20-11 24z m234 304c0 0 0 0 0 0l-1-1c1 1 1 1 1 1z m-220 306c-6-2-12-4-18-6 6 2 12 4 18 6z m-82-30c6 3 12 5 19 8-7-3-13-5-19-8z m303-221c-49 2-99-5-148-20l187-513-39-14-187 513c-46-20-88-47-124-79 0 0 0 0 0 0 0 0 0 0 0 0-46 5-94 2-141-9-48-11-92-30-132-54 10 171 116 328 280 397 0 0 0 0 0 0 0 0 1 0 1 0l0 0c8 4 16 7 24 9l-6 17 34 13 6-17c8 3 16 6 24 8 0 0 0 0 0 0 1 0 1 1 2 1 0 0 0 0 0 0 170 52 352 1 469-125-46-6-92-21-135-43-44-22-82-51-115-84 0 0 0 0 0 0z m-166-26c0 0 0 0 0 0s0 0 0 0l0 0z m135 47c-55 127-128 210-185 210-13-4-26-9-38-14l-2-1c-12-4-25-8-37-13-37-32-52-129-7-280 38 30 81 54 127 70 46 17 93 26 142 28z" horiz-adv-x="1000" />

<glyph glyph-name="architecture" unicode="&#xe81b;" d="M896-115h-292v480c0 37-48 70-104 70s-104-33-104-70v-480h-292v742h792v-742z m-250 42h208v658h-708v-658h208v438c0 62 65 112 146 112s146-50 146-112v-438z m-604 0h916v-42h-916z m0 888h916v-42h-916z m812-84h42v-62h-42z m-125 0h42v-62h-42z m-125 0h42v-62h-42z m-125 0h42v-62h-42z m-125 0h42v-62h-42z m-125 0h42v-62h-42z m-125 0h42v-62h-42z" horiz-adv-x="1000" />

<glyph glyph-name="sports" unicode="&#xe81c;" d="M-1645 427h48v47h-48v-47z m52-4h-56v55h56v-55l0 0z m-69-14h83v82h-83v-82l0 0z m87-4h-92v91h92v-91l0 0z m2075 398c-250 0-453-203-453-453 0-77 19-150 54-214 0 0 0-2 1-3 77-141 227-236 398-236 162 0 313 87 393 228 40 68 60 146 60 225 0 250-203 453-453 453z m176-85c-62-36-112-82-147-134-44-67-62-144-55-227-44-25-92-41-143-48-2 0-3 0-5 0-9 34-13 69-13 104 0 139 92 249 187 344 0 0-2 0 0 0 63 0 122-14 176-39z m-364-465c9 0 17 1 26 2 58 8 114 27 165 56 43-26 80-60 110-99-73-63-166-98-263-98-79 0-154 23-220 65-15 34-27 71-33 110 57-25 119-37 181-37 11 0 23 0 34 1z m191 89l0 0 0 0 0 0z m-80 408c-85-90-165-198-165-337 0-36 5-72 13-107-62 1-123 16-178 45 0 197 142 363 330 399z m-236-660c51-20 107-30 163-30 108 0 211 38 293 107 31-53 49-112 53-174-59-32-126-50-196-50-126 0-238 57-313 147z m560-63c-8 64-30 126-65 181-38 62-91 114-154 151-5 55 3 107 24 154 70-22 134-63 182-117 66-73 107-171 107-269l0 0c-26-39-57-73-94-100z m136 185c-15 81-53 158-108 220-53 59-121 104-196 129 35 50 86 92 152 124 106-73 176-196 176-335 0-47-8-94-24-138z" horiz-adv-x="1000" />

<glyph glyph-name="greenery" unicode="&#xe81d;" d="M461 550c1 0 1 0 2 0 22 11 31 38 20 60-7 16-23 26-40 26-7 0-14-2-20-5-1-1-3-2-4-2 3 11 2 22-3 33-5 11-14 19-26 23-4 1-9 2-14 2-19 0-36-12-42-30-1 3-2 5-2 5-8 15-23 25-41 25-6 0-13-2-19-5-11-5-19-14-23-25s-3-24 2-35c0 0 1-1 1-1-5 1-9 2-14 2-19 0-36-12-43-30-8-24 5-50 29-58 1 0 2 0 3-1 0 0-1 0-1 0-11-6-19-15-23-26-4-12-3-24 2-35 8-15 23-25 41-25 6 0 13 2 19 5-3-10-2-20 3-30 5-10 15-19 26-22 5-2 9-3 14-3 18 0 33 10 41 26 8-15 23-24 40-24 7 0 13 1 20 4 22 11 31 38 20 61 0 0-1 1-1 1 2-1 4-1 4-1 5-2 9-3 14-3 20 0 37 12 43 31 8 23-5 48-28 57z m-25 54c8 4 17 0 20-7 4-7 1-16-6-20-9-4-43-13-61-13 10 13 36 34 47 40z m-74 43c2 6 8 10 14 10 2 0 3 0 5-1 4-1 7-4 8-7 2-4 2-8 1-12-4-12-22-41-33-52-3 16 1 50 5 62z m-77 8c2 2 4 2 6 2 6 0 11-3 14-8 6-12 13-45 13-61-13 10-34 36-40 47-4 8-1 17 7 20z m-60-84c-2 4-2 8-1 12 2 6 8 10 14 10 2 0 3 0 5-1 12-4 41-22 52-33-3-1-8-1-14-1-19 0-41 3-48 6-4 1-7 4-8 7z m27-91c-7-4-16-1-20 7-2 3-2 7-1 11 2 4 4 7 8 9 9 4 41 13 60 13 0 0 0 0 0 0-9-13-35-34-47-40z m71-42c-3-7-12-12-19-9-4 1-7 4-9 8-2 3-2 7-1 11 4 12 22 41 34 52 2-16-1-49-5-62z m13 86c-11 3-16 15-13 25 4 11 15 16 26 13 10-4 16-15 12-26-3-10-15-16-25-12z m59-93c-7-3-16 0-20 7-6 12-13 45-13 61 13-10 34-36 40-48 4-7 1-16-7-20z m65 71c-2-7-11-12-19-9-12 4-40 22-52 33 4 1 8 1 14 1 19 0 41-3 48-6 4-1 7-4 9-7 2-4 2-8 0-12z m366-28c1 0 1 0 1 0 20 10 28 33 18 52-6 14-20 22-35 22-6 0-11-1-17-4-1-1-2-1-4-2 3 10 3 20-2 29-4 9-12 16-22 19-4 2-8 3-13 3-16 0-31-11-36-26-1 2-2 4-2 4-6 13-20 21-34 21-6 0-12-1-18-3-9-5-16-13-19-23-4-10-3-20 2-29 0-1 0-1 0-2-4 2-8 2-12 2-16 0-31-10-36-26-7-20 4-42 24-49 1-1 2-1 3-1 0 0-1-1-1-1-10-4-17-12-20-22-3-10-3-21 2-30 7-13 20-22 35-22 6 0 11 2 16 4-2-8-1-17 3-25 5-9 13-16 23-20 4-1 8-2 12-2 15 0 29 9 35 22 7-13 20-21 34-21 6 0 12 2 18 4 19 10 27 33 17 52 0 1 0 1-1 2 2-1 4-1 4-1 4-2 8-3 12-3 17 0 32 11 37 27 7 20-4 42-24 49z m-21 47c6 3 14 0 17-6 3-7 0-14-6-17-8-4-36-12-52-12 8 11 31 30 41 35z m-65 37c2 5 7 9 12 9 2 0 3-1 5-1 3-1 6-4 7-7 2-3 2-6 1-10-4-10-19-35-29-45-2 14 1 43 4 54z m-66 7c2 1 4 2 5 2 5 0 10-3 12-8 5-10 12-38 12-52-12 8-30 31-35 41-3 6-1 14 6 17z m-52-72c-2 3-2 6-1 10 2 5 7 8 12 8 2 0 3 0 5 0 10-4 35-19 45-29-3-1-7-1-12-1-17 0-36 3-42 5-3 1-6 4-7 7z m24-79c-7-3-15-1-18 6-1 3-1 6 0 9 1 4 3 6 6 8 8 4 35 11 52 11 0 0 0 0 0 0-8-11-30-29-40-34z m60-36c-2-7-9-10-16-8-3 1-6 3-8 6-1 3-1 7 0 10 3 11 19 36 29 45 2-13-1-43-5-53z m12 74c-9 3-14 12-11 21s13 14 22 11c9-3 14-13 11-22-3-9-13-14-22-10z m51-80c-6-3-14-1-17 6-5 10-12 38-12 52 11-8 30-31 35-41 3-6 1-14-6-17z m56 61c-2-6-9-10-16-8-11 4-35 19-45 29 3 0 7 1 12 1 16 0 35-3 41-5 4-2 6-4 8-7 1-3 2-7 0-10z m-164 260c0 0 1 0 1 0 16 8 23 28 15 44-5 11-17 18-29 18-5 0-10-1-15-3-1-1-2-1-3-2 3 8 2 17-2 24-4 8-10 14-18 17-4 1-7 2-11 2-14 0-26-9-31-22-1 2-1 3-1 3-6 12-17 19-29 19-6 0-10-2-15-4-8-4-14-10-16-19-3-8-3-17 1-25 0 0 1 0 1-1-4 1-7 2-10 2-14 0-27-9-31-22-6-17 3-36 20-42 1 0 2 0 3 0-1-1-1-1-1-1-8-4-14-11-17-19-3-8-2-17 2-25 5-11 17-18 29-18 5 0 10 1 14 3-2-7-1-15 2-21 4-8 11-14 19-17 4-1 7-2 11-2 13 0 24 8 29 19 6-11 17-17 29-17 5 0 10 1 15 3 16 8 23 28 15 44-1 0-1 1-1 1 2-1 3-1 3-1 3-1 7-2 10-2 14 0 27 9 31 22 6 17-3 36-20 42z m-18 39c5 3 12 0 15-5 2-5 0-12-5-14-7-4-31-10-45-10 8 9 27 25 35 29z m-54 31c1 5 5 8 10 8 1 0 2 0 4-1 2-1 4-3 6-5 1-3 1-6 0-9-3-9-16-30-24-38-2 12 1 37 4 45z m-56 7c1 0 3 1 5 1 4 0 7-3 9-6 4-9 10-33 10-44-9 7-25 26-29 34-3 5-1 12 5 15z m-44-62c-1 3-2 6-1 9 2 4 6 7 11 7 1 0 2 0 3 0 9-3 30-16 38-25-2 0-5 0-10 0-14 0-30 2-35 4-3 1-5 3-6 5z m20-66c-5-3-12 0-15 5-1 2-1 5 0 8 1 3 3 5 5 6 7 4 30 10 44 10 0 0 0 0 0 0-7-9-26-25-34-29z m51-30c-2-6-8-9-14-7-2 1-5 3-6 5-1 3-1 6-1 9 4 9 17 30 25 38 2-12-1-36-4-45z m10 62c-8 2-12 11-9 18 2 8 10 12 18 9 8-2 12-11 9-18-2-8-11-12-18-9z m43-67c-5-3-12-1-15 4-4 9-9 33-9 45 9-7 25-26 29-35 3-5 0-12-5-14z m48 51c-2-5-9-8-14-7-9 3-30 16-38 25 2 0 5 0 10 0 13 0 30-2 35-4 2-1 5-3 6-5 1-3 1-6 1-9z m3-396l-49 21c5 62 45 94 47 96 7 5 8 14 3 21-5 6-14 8-21 3-2-2-49-38-58-107l-67 29c-8 112-85 158-88 160l-15-26c2-2 59-36 71-120l-78 34c-6 2-12 1-16-3s-6-10-4-16c17-46 94-292 100-373 1-7 7-13 14-13l3-62c1-8 8-14 15-14 1 0 1 0 1 0 9 0 15 7 14 15l-3 60h16l4-42c0-7 7-13 15-13 0 0 1 0 1 0 8 0 14 8 14 16l-4 40c6 2 10 7 11 13 7 62 81 260 82 262 3 8-1 16-8 19z m-102-265h-44c-11 83-65 258-90 335l158-68 21-10 32-14c-16-43-65-178-77-243z m-30 297c-16 98 0 151 15 198 11 37 21 69 13 118l30 5c9-56-3-92-14-131-15-47-29-94-14-185l-30-5z" horiz-adv-x="1000" />

<glyph glyph-name="family" unicode="&#xe81e;" d="M321 765c0-47-38-85-85-85-47 0-85 38-85 85 0 47 38 85 85 85s85-38 85-85z m-76-582l18-313c0-11 9-20 20-20 11 0 20 9 20 20l17 313h55l-57 352 116-230c4-10 15-15 26-11 10 5 15 16 10 26 0 0-84 229-105 272-21 42-42 68-121 68h-16c-79 0-100-26-121-68-21-43-105-272-105-272-5-10 0-21 10-26 10-4 22 1 26 11l116 230-58-352h56l17-313c0-11 9-20 20-20 11 0 20 9 20 20l17 313h19z m677 667c-47 0-85-38-85-85s38-85 85-85c47 0 85 38 85 85s-38 85-85 85z m88-500l6 185 104-230c4-10 16-15 26-11 10 5 15 16 10 27 0 0-73 228-94 271-20 42-53 68-132 68h-16c-79 0-112-26-132-68-21-43-94-271-94-271-5-11 0-22 10-27 10-4 22 1 26 11l104 230 6-185-16-465c-1-18 12-34 30-35 1 0 2 0 3 0 17 0 32 13 33 31l38 382 38-382c1-18 16-31 33-31 1 0 2 0 3 0 18 1 32 17 31 35l-17 465h0z m-431-16c-29 0-52-23-52-52 0-29 23-52 52-52 29 0 52 23 52 52 0 29-23 52-52 52z m0-307s23-163 23-163c4-8 11-14 20-14 9 0 17 6 20 15 0 0 1 10 0 11l-9 201 3 69c2 23 3 16 29 32 28 16 74 88 76 91 2 4 6 10 7 14 2 7-3 14-10 16-6 0-10-2-14-6-3-4-56-75-96-82-9 2-19 6-44 6h-10c-26 0-35-4-44-6-40 7-93 78-97 82-3 3-8 6-13 5-8-1-12-8-11-15 1-4 5-10 7-14 3-4 49-75 76-91 27-16 27-9 30-33l3-69-10-200c0-2 0-11 1-12 3-8 10-14 20-14 9 0 16 5 19 13 0 1 24 164 24 164" horiz-adv-x="1158" />

<glyph glyph-name="bonfire" unicode="&#xe81f;" d="M859 25c-6 30-36 50-67 44l-291-52-252 52c-30 6-61-13-68-43-3-14 0-29 8-42 5-8 12-14 21-19l-23-4c-15-3-29-11-37-24-9-12-12-27-9-42 6-29 36-50 67-44l290 52 253-52c4-1 8-1 12-1 26 0 50 19 56 44 5 25-7 49-30 61l24 4c15 3 29 11 37 24 9 12 12 27 9 42z m-639-8c2 8 9 13 18 13 1 0 2 0 3 0l154-32-86-15-75 15c-5 1-9 4-11 8-3 3-3 7-3 11z m560-114c-2-9-12-15-21-13l-154 32 84 15 81-17c6-3 11-9 10-17z m37 103c-2-4-6-7-11-8l-605-108c-10-1-19 5-21 13-1 5 1 9 3 11 2 4 7 7 11 8l307 55c3 0 5 0 7 1l291 52c0 0 0 0 0 0 10 2 19-4 21-13 1-5-1-9-3-11z m-298 44c198 0 301 106 301 210 0 64-32 103-58 134-18 21-32 38-31 58 0 15 6 30 13 45 23 55 32 104-87 186-6 4-15 4-22 0-7-4-10-12-9-20 7-40 0-63-8-71-3-3-8-7-20-5-9 1-13 3-13 4-3 4 1 22 4 34 8 32 19 75-3 120-46 98-157 105-190 105-8 0-15-5-18-12-4-7-2-16 3-22 27-29 41-71 37-117-5-52-31-101-73-133-4-2-6-4-7-4-2 2-5 8-7 12-10 18-30 56-80 36-8-3-13-10-13-18 0-9 5-16 12-19 4-2 7-6 9-12 7-20 3-56-9-80-3-6-10-12-18-20-22-20-52-48-52-117 0-163 186-294 339-294z m84 92c-23-31-66-42-96-42-56 0-121 60-121 138 0 49 27 77 57 107 22 23 46 47 55 81 9-23 2-48-29-105-8-16-7-38 5-57 13-23 38-38 62-38 14 0 26 4 37 11-2-7-2-16 5-25 7-10 21-14 34-10 2 0 4 1 6 2 2-25-3-45-15-62z m-344 290c10 9 20 18 27 31 10 21 18 51 16 80 6-10 14-18 27-21 12-3 25 1 40 12 51 39 83 98 89 162 3 40-4 78-21 111 39-7 88-26 113-79 15-33 8-65 1-93-6-25-12-48 1-67 8-11 21-18 41-21 27-4 44 7 54 17 15 15 20 38 22 60 63-52 52-78 38-112-7-17-16-36-16-59v0c-1-35 20-60 41-85 23-29 48-58 48-108 0-66-54-132-160-158 6 5 11 10 15 16 18 25 35 68 14 136-3 8-10 14-19 14 4 21-2 47-35 80-7 6-17 7-25 2-8-5-11-14-8-23 6-18 5-37-4-49-5-8-13-12-22-12-12 0-22 9-28 19-5 7-5 14-4 17 60 108 42 137-4 192l-5 5c-6 7-16 9-24 5-8-4-13-13-11-22 11-50-14-76-46-109-32-32-68-69-68-135 0-45 16-84 41-115-91 44-167 128-167 221 0 52 20 70 39 88z" horiz-adv-x="1000" />
</font>
</defs>
</svg>
